<?xml version="1.0" encoding="UTF-8"?>
<svg width="32px" height="32px" viewBox="0 0 32 32" version="1.1" xmlns="http://www.w3.org/2000/svg" xmlns:xlink="http://www.w3.org/1999/xlink">
    <title>kindlr</title>
    <g id="Page-1" stroke="none" stroke-width="1" fill="none" fill-rule="evenodd">
        <g id="kindlr">
            <path d="M4,0 L28,0 C30.209139,0 32,1.790861 32,4 L32,28 C32,30.209139 30.209139,32 28,32 L4,32 C1.790861,32 0,30.209139 0,28 L0,4 C0,1.790861 1.790861,0 4,0 Z" id="background" fill="#8200DB"></path>
            <path d="M20.444,7.111 C21.382,7.111 22.149,7.836 22.217,8.756 L22.222,8.889 L22.222,9.777 L23.112,9.777 C24.0677798,9.77766771 24.8520264,10.5338319 24.8875307,11.4889523 C24.9230351,12.4440726 24.1970925,13.2563745 23.244,13.328 L23.111,13.333 L22.222,13.333 L22.222,18.666 L23.112,18.666 C24.0677798,18.6666677 24.8520264,19.4228319 24.8875307,20.3779523 C24.9230351,21.3330726 24.1970925,22.1453745 23.244,22.217 L23.111,22.222 L22.222,22.222 L22.222,23.112 C22.214866,24.0630625 21.4605483,24.8400955 20.5101159,24.8754355 C19.5596835,24.9107756 18.7497436,24.1919064 18.672,23.244 L18.667,23.111 L18.667,22.222 L13.333,22.222 L13.333,23.112 C13.325866,24.0630625 12.5715483,24.8400955 11.6211159,24.8754355 C10.6706835,24.9107756 9.86074358,24.1919064 9.783,23.244 L9.778,23.111 L9.778,22.222 L8.888,22.222 C7.93693755,22.214866 7.15990447,21.4605483 7.12456445,20.5101159 C7.08922443,19.5596835 7.80809356,18.7497436 8.756,18.672 L8.889,18.667 L9.777,18.667 L9.777,13.333 L8.89,13.333 C7.93877194,13.3263564 7.16127767,12.5721934 7.12566423,11.6216091 C7.09005079,10.6710247 7.80893561,9.86080023 8.757,9.783 L8.89,9.778 L9.778,9.778 L9.778,8.888 C9.77866771,7.93222019 10.5348319,7.1479736 11.4899523,7.11246927 C12.4450726,7.07696493 13.2573745,7.80290752 13.329,8.756 L13.334,8.889 L13.334,9.777 L18.667,9.777 L18.667,8.89 C18.667,7.908 19.464,7.112 20.445,7.112 L20.444,7.111 Z M18.666,13.333 L13.333,13.333 L13.333,18.666 L18.666,18.666 L18.666,13.333 Z" id="hashtag" fill="#FFFFFF" fill-rule="nonzero"></path>
        </g>
    </g>
</svg>